<svg width="40" height="40" viewBox="0 0 40 40" fill="none" xmlns="http://www.w3.org/2000/svg">
<rect width="40" height="40" rx="12" fill="#F1F1F1"/>
<path fill-rule="evenodd" clip-rule="evenodd" d="M14 19C12.8954 19 12 18.1046 12 17L12 14C12 12.8954 12.8954 12 14 12L17 12C18.1046 12 19 12.8954 19 14V17C19 18.1046 18.1046 19 17 19H14ZM14 17H17V14L14 14L14 17Z" fill="#15B742"/>
<path fill-rule="evenodd" clip-rule="evenodd" d="M14 28C12.8954 28 12 27.1046 12 26V23C12 21.8954 12.8954 21 14 21H17C18.1046 21 19 21.8954 19 23V26C19 27.1046 18.1046 28 17 28H14ZM14 26H17V23H14V26Z" fill="#15B742"/>
<path fill-rule="evenodd" clip-rule="evenodd" d="M21 17C21 18.1046 21.8954 19 23 19H26C27.1046 19 28 18.1046 28 17V14C28 12.8954 27.1046 12 26 12H23C21.8954 12 21 12.8954 21 14V17ZM26 17H23V14H26V17Z" fill="#15B742"/>
<path fill-rule="evenodd" clip-rule="evenodd" d="M23 28C21.8954 28 21 27.1046 21 26V23C21 21.8954 21.8954 21 23 21H26C27.1046 21 28 21.8954 28 23V26C28 27.1046 27.1046 28 26 28H23ZM23 26H26V23H23V26Z" fill="#15B742"/>
</svg>
