<svg width="32" height="32" viewBox="0 0 32 32" fill="none" xmlns="http://www.w3.org/2000/svg">
<path fill-rule="evenodd" clip-rule="evenodd" d="M16.0001 13.0843L14.5046 12.0872C13.3709 11.3314 11.8314 11.7403 11.222 12.959C10.786 13.8311 10.9569 14.8844 11.6463 15.5739L16.0001 19.9277L20.354 15.5739C21.0434 14.8844 21.2143 13.8311 20.7783 12.959C20.1689 11.7403 18.6294 11.3314 17.4957 12.0872L16.0001 13.0843ZM15.4021 10.741C13.4587 9.44533 10.8194 10.1462 9.77482 12.2354C9.02732 13.7304 9.32032 15.5361 10.5022 16.718L15.4817 21.6975C15.768 21.9838 16.2323 21.9838 16.5186 21.6975L21.4981 16.718C22.68 15.5361 22.973 13.7304 22.2255 12.2354C21.1809 10.1462 18.5416 9.44533 16.5982 10.741L16.0001 11.1397L15.4021 10.741Z" fill="black" fill-opacity="0.4"/>
</svg>
