<svg width="32" height="32" viewBox="0 0 32 32" fill="none" xmlns="http://www.w3.org/2000/svg">
<path d="M17.9995 13H14.0001C13.7495 13 13.4995 13.15 13.4995 13.5C13.4995 13.85 13.7495 13.96 14.0001 13.96H18.0001C18.2495 13.96 18.4995 13.8477 18.4995 13.5C18.4995 13.1523 18.2495 13 17.9995 13Z" fill="black" fill-opacity="0.4"/>
<path fill-rule="evenodd" clip-rule="evenodd" d="M8.99975 10.5C8.99975 9.5 9.76338 9 10.4998 9H21.4998C22.2361 9 22.9995 9.5 22.9995 10.5C22.9995 11.5 22.2361 11.9601 21.4998 11.9601V21.2041C21.4998 22.0248 20.6681 22.69 19.8475 22.69C19.4448 22.69 19.0593 22.5266 18.7793 22.2371C18.7057 22.161 18.5718 21.9423 18.4525 21.9441C18.378 21.9453 18.345 22.0294 18.3104 22.083C17.7745 22.9142 16.559 22.9142 16.0231 22.083L16.0011 22.0488L16.0001 22.0483L15.9991 22.0488C15.6945 22.5213 14.9872 22.6837 14.6698 22.6808C13.9416 22.6741 13.6373 21.7975 13.3398 21.7975C12.9124 21.7975 13.0158 22.69 12.0001 22.69C11.1997 22.69 10.4998 22.0412 10.4998 21.2407L10.4998 11.9601C9.76338 11.9601 8.99975 11.5 8.99975 10.5ZM12.0001 11.1667C12.0001 10.7985 12.2986 10.5 12.6668 10.5H19.3334C19.7016 10.5 20.0001 10.7985 20.0001 11.1667V21.2041C20.0001 21.2884 19.9317 21.3567 19.8475 21.3567C19.3843 21.3567 19.266 20.4988 18.6698 20.5C18.1698 20.501 17.5278 20.8363 17.2501 21.2671L17.1898 21.3605C17.1869 21.365 17.1838 21.368 17.1838 21.368L17.1819 21.3695L17.1808 21.3701C17.1783 21.3714 17.1735 21.3731 17.1667 21.3731C17.16 21.3731 17.1552 21.3714 17.1527 21.3701L17.1497 21.368C17.1497 21.368 17.1466 21.365 17.1437 21.3605L17.1217 21.3263C16.8636 20.9261 16.4994 20.5 15.9998 20.5C15.3845 20.5 15.1169 21.3552 14.6698 21.3552C14.2226 21.3552 14.1373 20.5 13.3398 20.5C12.6896 20.5 12.5069 21.3637 12.1161 21.3552C12.0575 21.3539 12.0001 21.31 12.0001 21.2407V11.1667Z" fill="black" fill-opacity="0.4"/>
<path d="M17.9995 15H14.0001C13.7495 15 13.4995 15.15 13.4995 15.5C13.4995 15.85 13.7495 16 14.0001 16H18.0001C18.2495 16 18.4995 15.8477 18.4995 15.5C18.4995 15.1523 18.2495 15 17.9995 15Z" fill="black" fill-opacity="0.4"/>
<path d="M16.9995 17L14.0001 17C13.7495 17 13.4995 17.15 13.4995 17.5C13.4995 17.85 13.7495 18 14.0001 18L17.0001 18C17.2495 18 17.4995 17.8477 17.4995 17.5C17.4995 17.1523 17.2495 17 16.9995 17Z" fill="black" fill-opacity="0.4"/>
</svg>
