<svg width="36" height="36" viewBox="0 0 36 36" fill="none" xmlns="http://www.w3.org/2000/svg">
<path fill-rule="evenodd" clip-rule="evenodd" d="M11.9998 15.0005C11.3601 15.0005 10.8855 15.5928 11.0242 16.2173L12.4051 22.4346C12.6092 23.3496 13.4207 24.0005 14.3582 24.0005H21.1492C21.616 24.0005 22.0516 23.8389 22.3963 23.564C22.7439 23.2866 22.9998 22.894 23.1014 22.4346L24.4832 16.2173C24.6219 15.5928 24.1463 15.0005 23.5066 15.0005H20.2889C19.9549 15.0005 19.6424 15.1675 19.4568 15.4458L19.4178 15.5044C18.6258 16.6919 16.8807 16.6919 16.0896 15.5044L16.0506 15.4458C15.865 15.1675 15.5525 15.0005 15.2185 15.0005H11.9998ZM15.2781 18.7671C15.2781 18.3438 14.9373 18.0005 14.5164 18.0005C14.0945 18.0005 13.7537 18.3438 13.7537 18.7671V21.2339C13.7537 21.6572 14.0945 22.0005 14.5164 22.0005C14.9373 22.0005 15.2781 21.6572 15.2781 21.2339V18.7671ZM18.5281 18.7671C18.5281 18.3438 18.1863 18.0005 17.7654 18.0005C17.3445 18.0005 17.0037 18.3438 17.0037 18.7671V21.2339C17.0037 21.6572 17.3445 22.0005 17.7654 22.0005C18.1863 22.0005 18.5281 21.6572 18.5281 21.2339V18.7671ZM20.991 18.0005C21.4129 18.0005 21.7537 18.3438 21.7537 18.7671V21.2339C21.7537 21.6572 21.4129 22.0005 20.991 22.0005C20.5701 22.0005 20.2293 21.6572 20.2293 21.2339V18.7671C20.2293 18.3438 20.5701 18.0005 20.991 18.0005Z" fill="white"/>
<path fill-rule="evenodd" clip-rule="evenodd" d="M19.1256 11.0718C19.6383 11.2769 19.8878 11.8589 19.6826 12.3717L18.6826 14.8717C18.4775 15.3844 17.8956 15.6339 17.3828 15.4287C16.87 15.2236 16.6206 14.6417 16.8257 14.1289L17.8257 11.6289C18.0308 11.1161 18.6128 10.8667 19.1256 11.0718Z" fill="white"/>
</svg>
